<?xml version="1.0" encoding="UTF-8"?>
<svg version="1.1" viewBox="0 0 1600 1600" width="1280" height="1280" xmlns="http://www.w3.org/2000/svg">
<path transform="translate(1065,640)" d="m0 0h18l5 3 1-3h22l1 2 1 9 7 8 2 4 9 2 5 5v5l-3 2v2l3 1v83l-3 2v2l3 2v10l-14 2-6 4-1 2h-2l-1 40-5 1h-15v19l-5 1h-19v23l-6 1h-18v23l-2 1h-66v19l-1 1h-50l-2-4h-2v3l-2 1h-210l-2-4-4 4-58 1-5 3-3 1-2 10-3 4 3 1 1 3-1 1h-26l-2-4-4 4-26 1-2 2-4 1h-7v19l-2 1h-90l-1-19-4-4-13-1-5-4-1-2v-8l3-4v-6h-2l-1-2v-21l1-1 19-1-2-6-1-5 2-2-1-5-2-2 1-7 4-2 2-4v-6h-2l1-5 1-1v-14h-2l1-5 1-1 1-25 1-1 18-1 1-17 5-6 18-1 1-18 1-1 22-1 1-22 1-1 46-1-2-4-1-3 4 1 12 6h7l1-2-7-2-16-8-2-4 3-3 8-4h12l2 1v2h18l2-2h4v2h6l3-3h9l3 3h25l3-3h6l2 3h25l4-3 5 1 1 1v5l7-1 2-2 9-1 3-3h14l4 3 4-1 2-2 7 1 1 2h51l1-3h13l6 5v2l5-3 3-3 4 1 1 1h43l1-3 22-1 5 1 1 2 3 1v-6l6-5 3 2v2l6-1 1-9 5-5 5-1 2 2 2 5 4 8 7 3 1 1h17l1-19 43-1 1-22 1-1 22-1 1-22z" fill="#6D904F"/>
<path transform="translate(1098,646)" d="m0 0h3l8 13 8 19 4 19 1 9v19l-3 20-6 20-12 25-5 8-1 7-6 10-14 19-2-4 1-6h2l1-4-7 4-10 8-13 8-20 11-11 5-12 3-23 7-32 7-30 4-34 2h-24l-34-2-38-3-38-2h-81l-4-2-5 1-8-3-9-2v-5l-10-2-1 2-6 2-2 2h-4v2l-13 2h-8l-9 2h-9v-2l7-3 20-6 12-5 1-2 1-13 2-1 7 14 2 1h7l5-2-2-10v-22l2-52 5-2 4 4 3 5 2 11 2 10 2 6 3 26h2v-8l3-17 1-13 1-2 4-1 1 20 1 6 1 27h2l2 4 8 3h23l9-3 6-5 3-7v-10l-3-11-9-10-2-4 7-5 3-5v-13l-5-10-7-6v-2l-5-1 2-5 5-3h3v-4l8-4 9-2h25l40 2 16 1h65l33-3 27-4 28-6 20-6 18-7 9-4 16-8 15-10 13-10 13-11 4-6 12-14z" fill="#1C5C36"/>
<path transform="translate(1065,640)" d="m0 0h18l5 3 1-3h22l1 2 1 9 7 8 2 4 9 2 5 5v5l-3 2v2l3 1v83l-3 2v2l3 2v10l-14 2-6 4-1 2h-2l-1 40-5 1h-15v19l-5 1h-19v23l-6 1h-18v23l-2 1h-66v19l-1 1h-50l-2-4h-2v3l-2 1h-210l-2-4-4 4-58 1-5 3-3 1-2 10-3 4 3 1 1 3-1 1h-26l-2-4-4 4-26 1-2 2-4 1h-7v19l-2 1h-90l-1-19-4-4-13-1-5-4-1-2v-8l3-4v-6h-2l-1-2v-21l1-1 19-1-2-6-1-5 2-2-1-5-2-2 1-7 4-2 2-4v-6h-2l1-5 1-1v-14h-2l1-5 1-1 1-25 1-1 18-1 1-17 5-6 18-1 1-18 1-1 22-1 1-22 1-1 46-1-2-4-1-3 4 1 12 6h7l1-2-7-2-16-8-2-4 3-3 8-4h12l2 1v2h18l2-2h4v2h6l3-3h9l3 3h25l3-3h6l2 3h25l4-3 5 1 1 1v5l7-1 2-2 9-1 3-3h14l4 3 4-1 2-2 7 1 1 2h51l1-3h13l6 5v2l5-3 3-3 4 1 1 1h43l1-3 22-1 5 1 1 2 3 1v-6l6-5 3 2v2l6-1 1-9 5-5 5-1 2 2 2 5 4 8 7 3 1 1h17l1-19 43-1 1-22 1-1 22-1 1-22zm33 6-12 14-7 8-11 10-18 13-14 7-15 8-35 13-19 5-20 4-24 3-29 2-4 1-17 1h-37l-8-1-70-3h-10l-33 2-43 3-29 4-26 5-33 9-29 11-22 11-9 6v2l-5 2-7 6-6 5-6 8-7 10-8 16-6 18-2 15-1 21-1 11-4 9-1 5v16l3 12 5 10 9 10 4-1 14-15 11-10 10-7 17-10 16-8 14-6 19-6 10-2 5 3 4 9 5 5 9 3 20-4 30-5 29-3 34-1h18l39 1 47 3h42l26-2 18-2 7-2v-2l6-2 5-4 6-3 4-4 1-3-1-2 2-1-1-2h2v-2l6-1 21-6 30-10 16-8 19-10 17-12 8-6v2 2h-2l-1 6 2 4 14-19 6-10 2-9 5-8 11-23 6-20 3-20v-19l-3-20-5-16-8-16-5-8z" fill="#FCFBF9"/>
<path transform="translate(1076,819)" d="m0 0 2 2-2 3h-2l-1 6 2 1-1 6-15 14-13 10-16 9-17 9-25 9-15 5-36 8-24 3-13 1h-68l-50-3h-71l-32 3-27 4-32 7-27 8-21 8-17 8-18 11-9 7-2 2-5-1 4-26 1-7-2-1 21-12 16-8 18-7 13-4 10-2 5 3 4 7v3l4 2 2 3 8 2 20-4 30-5 29-3 34-1h18l39 1 47 3h42l26-2 18-2 7-1v-2l5-3 4-2 4-3 7-4 2-9h2v-2l27-8 30-10 16-8 19-10 17-12z" fill="#F0E6D1"/>
<path transform="translate(683,754)" d="m0 0 7 2 3 3v2l12-6 10 1 7 4 6 7 3 7v13l-5 7-5 3 2 4 7 7 4 9 1 5v10l-4 8-6 5-9 3h-23l-8-3-4-8v-58l-2-13-5-10z" fill="#FCFBF8"/>
<path transform="translate(1085,660)" d="m0 0v3l-10 10-11 9-14 10-14 7-15 8-35 13-19 5-20 4-24 3-29 2-4 1-17 1h-37l-8-1-70-3h-10l-33 2-43 3-29 4-26 5-33 9-29 11-22 11-7 5h-2v2l-12 9h-2l-1 3-4 4-7 9-8 13-6 14-4 13h-1l1-8 7-19 7-12 7-10h2l2-4 11-12 9-8 17-12 19-10 19-8 27-9 28-6 17-3 32-3 17-1h43l92 6h61l32-3 30-5 31-8 23-8 29-13 13-8 14-10 13-12z" fill="#F0E6D1"/>
<path transform="translate(973,744)" d="m0 0h8l5 5 2 10v17l-1 20v15l2 14 1 8-5 3h-7l-3-7-2-1-1 4-6 8-8 4h-6l-4-2-6-10-1-5v-16l4-14 6-9 6-5 6-2 11 1v-14l-3-16-1-7z" fill="#FCFAF8"/>
<path transform="translate(1076,819)" d="m0 0 2 2-2 3h-2l-1 6 2 1-1 6-15 14-13 10-16 9-17 9-25 9-15 5-36 8h-9l3-3h4v-2l5-3 4-2 4-3 7-4 2-9h2v-2l27-8 30-10 16-8 19-10 17-12z" fill="#EFE5D0"/>
<path transform="translate(910,788)" d="m0 0h10l9 2 2 2-1 12v28l3 12v3l-3 1h-7l-5-4-1-5-5 5-4 5-4 2h-8l-8-7-5-13v-17l5-14 5-6 8-4z" fill="#FCFAF8"/>
<path transform="translate(762,788)" d="m0 0h16l13 5 1 1v43l3 10v3h-9l-6-5-1-8h-2l-2 5-5 5-3 1h-8l-6-4-6-8-3-12v-12l4-13 7-8z" fill="#FCFAF8"/>
<path transform="translate(824,782)" d="m0 0h12l6 4 5 10 8 34 1 4h2l2-9 5-16v-11l-1-5 5-1 6 3 1 5-2 9-12 34-3 9h-7l-4-2-4-8-5-22v-3h-2l-2 6-6 15-4 12-1 1h-7l-5-5-3-15-5-26-3-10v-4h12l3 4 7 36 2 1 3-10 6-16-2-9-6-11z" fill="#FCFBF8"/>
<path transform="translate(610,767)" d="m0 0h6l1 1v8l-3 3-17 3h-7l1 18v15l5-2v-2l13-4 8-2 1 5-1 3-9 3-16 4-1 4v17l1 11 10-1 12-6 4-5 4 1 1 4v8l-4 4-16 6-23 6-3-3-1-9-1-59-2-16v-5l8-4 16-4z" fill="#FBFAF7"/>
<path transform="translate(705,763)" d="m0 0 6 2 5 6 2 5v10l-4 7-4 3-6 2-1 2 7 2 6 7 4 11v8l-3 8-6 5-8 1-6-3-2-7v-53l2-9 5-6z" fill="#226038"/>
<path transform="translate(633,761)" d="m0 0h7l4 4 2 6v22l-1 27v22l2 10-2 2-7 1-5-3-2-6 1-26v-29l-2-22v-7z" fill="#FBFAF6"/>
<path transform="translate(911,795)" d="m0 0 5 1 1 2v17l-1 14-2 7-6 5-7-1-4-7-1-4v-15l4-11 5-6z" fill="#236139"/>
<path transform="translate(965,787)" d="m0 0h6l4 4v20l-2 13-5 7-3 2-7-1-3-4-1-17 2-12 4-8z" fill="#226038"/>
<path transform="translate(769,795)" d="m0 0h6l4 3v11l-2 22-2 5h-2v2l-2 1h-6l-5-4-2-6v-19l4-10 4-4z" fill="#1D5D37"/>
<path transform="translate(1009,769)" d="m0 0 5 1 1 1v54l-6 3h-5l-2-7v-40l-1-9z" fill="#FBFAF7"/>
<path transform="translate(711,804)" d="m0 0 5 5 4 11v8l-3 8-6 5-8 1-6-3 1-3h3l2-5-1-9 4-10 3 1z" fill="#6D904F"/>
<path transform="translate(618,768)" d="m0 0 3 1 1 5-3 9-9 4h-6l-9 3v21l-2 4h-2l-1-15v-18l26-4z" fill="#246139"/>
<path transform="translate(619,805)" d="m0 0 3 2-1 11-9 2h-9l1 3-3 2h-6v13l-1 13h-2l-2-10v-17l2-5 16-4 9-2 1-4z" fill="#246139"/>
<path transform="translate(1101,786)" d="m0 0 1 2-6 10-1 7-6 10-14 19-2-4 1-6h2l1-4-6 2 6-7 10-10 8-10z" fill="#6E9150"/>
<path transform="translate(714,769)" d="m0 0 3 4 1 3v10l-4 7-4 3h-5l1-7 1-5-1-3h2l1-2h2v-2h2v-7z" fill="#6E9150"/>
<path transform="translate(1e3 741)" d="m0 0 7 1 3 3 1 7-3 5-3 2-5-1-2-15z" fill="#FBF9F4"/>
<path transform="translate(527,848)" d="m0 0 4 1-21 12-11 7-16 12-4 1 2-4 12-9 15-10z" fill="#1A5B36"/>
<path transform="translate(778,798)" d="m0 0h1v11l-2 22-2 5h-2v2l-2 1h-6l-3-3 10-3 3-5v-8l2-12z" fill="#6E9150"/>
<path transform="translate(1079,668)" d="m0 0v3l-11 10-13 10-2-1 8-7 10-8z" fill="#6E9150"/>
<path transform="translate(1103,784)" d="m0 0 1 3-8 19-2 1 1-9 6-10z" fill="#F0E6D1"/>
<path transform="translate(746,801)" d="m0 0 1 3-2 8v17l-2-4-1-5v-10l3-7z" fill="#6E9150"/>
<path transform="translate(969,692)" d="m0 0h5l2 2v5l-5-1-2-2z" fill="#FAF8F3"/>
<path transform="translate(776,831)" d="m0 0 3 6h-5v4l-10-1-1-2h10v-2l2-1z" fill="#F0E6D1"/>
</svg>
